<svg xmlns="http://www.w3.org/2000/svg" fill="none" viewBox="0 0 299 75"><g fill="#000" clip-path="url(#a)"><path d="M136.847 14.239c1.858 0 3.447-.61 4.766-1.827 1.319-1.218 1.979-2.692 1.979-4.422 0-1.73-.66-3.21-1.979-4.44-1.319-1.229-2.908-1.843-4.766-1.843s-3.453.614-4.784 1.844c-1.33 1.229-1.996 2.709-1.996 4.439s.665 3.204 1.996 4.422c1.331 1.218 2.926 1.826 4.784 1.826ZM253.143 17.706l-.717.032-.003-.003-12.458.546-5.576 25.925a6.333 6.333 0 0 1-2.342 3.693 18.313 18.313 0 0 1-2.968 1.858c-1.139.567-2.135.931-3.017 1.132-1.09.177-2.822.11-4.252-1.538-.586-.674-.912-1.56-1.08-2.502.02-.47.094-1.136.227-2.022a23.03 23.03 0 0 1 .63-2.928l2.876-10.15c.315-1.066.524-2.224.629-3.473.104-1.25.157-2.108.157-2.578 0-2.29-.846-4.208-2.537-5.757-1.691-1.549-4.097-2.323-7.217-2.323-1.13 0-2.308.144-3.527.404-.148.017-.32.05-.538.11l-.012.003-.019.004c-2.201.63-4.114.717-4.81.726h-6.193l2.762-11.814h-12.727l-2.843 11.814h-4.228c-.94 0-1.756.643-1.971 1.55-.297 1.26.667 2.467 1.971 2.467h3.14l-4.872 20.744a59.31 59.31 0 0 0-.629 3.315 18.089 18.089 0 0 0-.196 2.73c0 2.338.943 4.268 2.829 5.79 1.887 1.52 4.402 2.28 7.545 2.28 1.912 0 4.028-.286 6.347-.857a42.045 42.045 0 0 0 6.167-2.049c.485-.203.843-.628.968-1.135.293-1.192-.769-2.275-1.975-2.005l-.364.08c-1.428.312-2.547.468-3.359.468-1.702 0-2.966-.285-3.791-.858-.825-.571-1.238-1.599-1.238-3.08 0-.312.085-.988.256-2.027.17-1.04.347-1.924.53-2.652l4.791-20.744h8.967c1.349.117 2.328.592 2.834 1.072.591.56.886 1.58.886 3.061 0 .598-.125 1.527-.374 2.788a61.122 61.122 0 0 1-.649 2.983l-2.959 10.645c-.395 1.507-.638 2.677-.729 3.51-.062.56-.103 1.114-.123 1.662-.068 1.845.327 3.706 1.325 5.263 1.676 2.614 4.447 3.864 8.314 3.75.084-.022.167-.045.251-.069l-.086.048-.036.02s9.144.238 15.927-6.483c-.68 3.306-1.494 6.184-2.45 8.597a35.64 35.64 0 0 1-1.02 2.309c-.704 1.196-3.816 4.673-7.443 4.673-3.628 0-7.816-4.39-7.816-4.39l.006.104a13.076 13.076 0 0 0-.893-.668c-1.111-.754-2.373-1.13-3.785-1.13-1.858 0-3.322.584-4.395 1.754-1.072 1.17-1.608 2.508-1.608 4.016 0 .858.19 1.735.569 2.632.38.897 1.093 1.709 2.14 2.437 1.152.806 2.755 1.436 4.809 1.891 2.055.454 4.639.683 7.755.683 2.852 0 5.666-.384 8.44-1.15a23.74 23.74 0 0 0 7.735-3.764c2.486-1.82 4.672-4.27 6.556-7.35 1.885-3.08 3.351-6.985 4.401-11.717l6.856-31.432.229-.92ZM168.189 37.893c3.641-.988 6.523-2.502 8.646-4.543 2.122-2.04 3.183-4.477 3.183-7.311 0-1.16-.192-2.203-.567-3.136a12.236 12.236 0 0 0-.115-.265c-.6-1.33-1.594-2.42-2.993-3.267-2.45-1.481-6.019-2.222-10.708-2.222-3.983 0-7.625.689-10.926 2.066-3.3 1.378-6.026 3.172-8.174 5.381-2.279 2.314-3.995 4.913-5.148 7.799a23.857 23.857 0 0 0-1.729 8.929c0 2.418.38 4.627 1.14 6.629a14.697 14.697 0 0 0 1.975 3.588c.046.062.098.12.145.183-.166.048-.323.096-.51.147-.994.274-1.883.41-2.668.41-1.675 0-2.852-.273-3.532-.819-.681-.546-1.02-1.572-1.02-3.08 0-.598.105-1.482.315-2.652.21-1.17.447-2.209.71-3.12l3.232-11.346c.314-1.04.53-2.184.648-3.431.118-1.248.177-2.119.177-2.613 0-2.391-.847-4.334-2.537-5.83-1.692-1.494-4.099-2.24-7.22-2.24-1.731 0-3.567.305-5.508.915a82.607 82.607 0 0 0-6.098 2.203l-.004.016a10.013 10.013 0 0 0-.784-.6c-2.449-1.69-5.992-2.535-10.629-2.535-4.009 0-7.638.689-10.886 2.066-3.25 1.378-5.909 3.159-7.978 5.342-2.227 2.314-3.878 4.88-4.951 7.701a24.234 24.234 0 0 0-1.129 3.959c.109-.938.17-1.886.17-2.848 0-5.12-1.71-9.117-5.129-11.99-1.762-1.48-3.86-2.576-6.287-3.294l1.402-2.555c.765-1.394-.252-3.094-1.852-3.094-.777 0-1.492.422-1.863 1.1l-2.03 3.707a32.255 32.255 0 0 0-3.38-.173c-3.903 0-7.531.63-10.885 1.892-3.354 1.26-6.183 2.97-8.488 5.127a23.632 23.632 0 0 0-5.443 7.76c-1.297 2.963-1.945 6.174-1.945 9.63 0 .53.023 1.045.06 1.551-.274-2.159-1.136-3.953-2.607-5.372-1.808-1.741-4.494-3.236-8.057-4.484a89.405 89.405 0 0 1-3.87-1.384c-1.036-.403-1.894-.838-2.575-1.306a4.675 4.675 0 0 1-1.434-1.56c-.324-.572-.492-1.35-.52-2.314.02-.35.127-1.218.631-2.064.723-1.082 1.876-2.142 3.629-2.142 3.58 0 4.977 2.961 4.977 2.961l.01-.033c.138.27.258.543.41.808a9.754 9.754 0 0 0 2.456 2.78c1.008.783 2.273 1.174 3.793 1.174 1.754 0 3.176-.513 4.263-1.54 1.087-1.027 1.631-2.255 1.631-3.685 0-1.43-.386-2.645-1.159-3.646-.773-1-1.854-1.813-3.242-2.437a18.555 18.555 0 0 0-4.755-1.287c-1.704-.233-3.55-.35-5.541-.35-3.328 0-6.236.357-8.724 1.072-2.49.715-4.546 1.67-6.17 2.866-1.65 1.247-2.863 2.606-3.635 4.075a9.943 9.943 0 0 0-1.16 4.698c0 2.807.924 5.154 2.77 7.038 1.848 1.885 4.356 3.36 7.526 4.426 1.153.39 2.319.806 3.498 1.248 1.179.442 2.148.897 2.908 1.364.76.495 1.369 1.067 1.827 1.716.452.642.68 1.436.686 2.38l-.002-.002s-.028 4.423-4.458 4.423c-2.96 0-4.874-1.579-5.824-2.629a66.687 66.687 0 0 0-.708-.915c-.5-.633-1.064-1.32-1.62-1.946a9.915 9.915 0 0 0-.992-1.043c-.46-.445-.879-.783-1.195-.91-.021-.01-.038-.01-.058-.015-.944-.539-2.05-.824-3.336-.824-1.887 0-3.4.565-4.54 1.696C.57 46.997 0 48.317 0 49.825c0 .832.236 1.722.707 2.67.472.95 1.35 1.84 2.633 2.672 1.258.832 2.967 1.514 5.129 2.047 2.16.532 4.892.8 8.193.8 3.641 0 6.642-.32 9-.956 2.358-.637 4.44-1.58 6.248-2.827 1.624-1.144 2.875-2.574 3.753-4.29.878-1.715 1.317-3.509 1.317-5.38 0-.254-.016-.498-.03-.743.457 4.002 2.125 7.248 5.014 9.73 1.14.98 2.4 1.794 3.777 2.448l-1.47 2.685c-.642 1.174.215 2.602 1.56 2.602a2.98 2.98 0 0 0 2.615-1.541l1.301-2.372c1.766.402 3.677.604 5.735.604 4.166 0 7.919-.643 11.26-1.93 3.34-1.287 6.253-3.112 8.743-5.478a23.074 23.074 0 0 0 5.344-7.799 23.963 23.963 0 0 0 1.41-4.568 26.412 26.412 0 0 0-.176 3.008c0 5.225 1.683 9.333 5.05 12.322 3.366 2.99 8.062 4.484 14.088 4.484 3.93 0 7.664-1.001 11.201-3.003 3.311-1.873 6.014-4.318 8.109-7.332a.832.832 0 0 0-.156-1.105 2.918 2.918 0 0 0-4.036.276c-1.4 1.557-2.778 2.724-4.134 3.502-1.925 1.105-4.329 1.657-7.212 1.657-2.882 0-5.01-1.065-6.542-3.197-1.533-2.132-2.3-5.264-2.3-9.398 0-5.432 1.01-9.988 3.027-13.667 1.115-2.032 2.396-3.482 3.83-4.392a4.697 4.697 0 0 1 1.909-.526c.172-.008.35-.025.507-.017.068.001.125.017.191.022.184.019.36.046.524.085 2.977.866 2.217 6.875 2.217 6.875h.002a9.247 9.247 0 0 0-.22 1.99c0 1.09.569 2.138 1.709 3.138 1.14 1.001 2.731 1.501 4.775 1.501 1.546 0 2.705-.22 3.478-.662.772-.442 1.487-1.079 2.142-1.911.523-.676.916-1.507 1.178-2.495.262-.988.393-1.885.393-2.69 0-1.41-.28-2.675-.835-3.797a8.785 8.785 0 0 1 1.929-.22c1.708 0 2.864.286 3.468.858.603.572.905 1.585.905 3.041 0 .806-.098 1.696-.294 2.67a53.808 53.808 0 0 1-.73 3.1l-3.244 11.387a33.172 33.172 0 0 0-.629 3.216c-.132.95-.197 1.879-.197 2.789 0 2.339.871 4.27 2.614 5.79 1.742 1.52 4.185 2.28 7.329 2.28 2.043 0 3.837-.266 5.383-.799 1.546-.532 3.616-1.306 6.21-2.32l1.54-.556c1.36 1.087 2.969 1.973 4.849 2.642 2.371.845 5.129 1.268 8.272 1.268 4.061 0 7.932-.995 11.613-2.983 3.33-1.8 6.119-4.147 8.367-7.043.399-.514.299-1.257-.203-1.673-1.042-.864-2.602-.788-3.511.211-1.497 1.646-3.048 2.908-4.653 3.787-2.162 1.183-4.789 1.774-7.88 1.774-1.781 0-3.248-.344-4.401-1.034a7.122 7.122 0 0 1-2.672-2.788c-.525-1.013-.918-2.235-1.179-3.665-.262-1.43-.419-2.716-.472-3.86 2.934-.312 5.417-.65 7.447-1.014 2.031-.364 4.487-.975 7.369-1.833h.001Zm-117.54 8.071c0-2.365.196-5.05.589-8.052.393-3.002 1.048-5.79 1.965-8.364 1.048-3.093 2.41-5.44 4.087-7.038 1.676-1.598 3.523-2.398 5.54-2.398.867 0 1.638.148 2.324.426L50.67 46.992a25.208 25.208 0 0 1-.023-1.027ZM68.176 37.6c-.472 3.029-1.166 5.79-2.083 8.286-.918 2.549-2.162 4.692-3.734 6.434s-3.432 2.612-5.58 2.612c-1.98 0-3.494-.701-4.54-2.103l15.904-28.988c.489 1.33.74 3.03.74 5.123 0 2.729-.236 5.608-.708 8.636Zm87.258-.32c-.645.095-1.292.185-1.942.262.497-4.991 1.644-9.118 3.438-12.38 1.794-3.262 3.7-4.894 5.718-4.894.365 0 .71.04 1.035.115.956.225 1.738.777 2.344 1.66.812 1.183 1.219 2.879 1.219 5.088 0 2.21-.432 4.03-1.297 5.38-.865 1.353-2.279 2.457-4.244 3.315-.891.39-2.096.728-3.616 1.014-.88.166-1.766.31-2.655.44ZM294.414 24.862c-2.659-2.6-5.954-3.9-9.884-3.9-.271 0-.52.023-.786.03-.098-.002-.18-.013-.281-.013-2.033 0-3.97.332-5.722.807l-.037.01c-4.479 1.22-7.682 3.386-7.89 3.53.821-2.19 1.728-4.299 2.75-6.3a27.038 27.038 0 0 1 4.225-6.073c1.703-1.843 3.779-3.53 6.229-5.06 2.255-1.41 4.872-2.534 7.85-3.372l1.566-.339 1.67-.273c.865-.142 1.597-.797 1.717-1.66.184-1.322-.941-2.409-2.206-2.23-11.914 1.688-21.583 6.044-29.008 13.067-7.86 7.434-11.79 16.364-11.79 26.788 0 5.459 1.749 9.84 5.246 13.14 3.498 3.302 8.181 4.952 14.05 4.952 7.388 0 13.616-2.275 18.686-6.824 5.069-4.548 7.604-9.93 7.604-16.142 0-4.16-1.33-7.539-3.989-10.139ZM280.51 48.979c-2.157 3.809-4.699 5.712-7.626 5.712-1.882 0-3.392-.961-4.529-2.885s-1.705-4.601-1.705-8.033c0-3.431.236-6.18.707-8.48l.191-.927c.538-2.61 1.979-4.99 4.182-6.51a9.051 9.051 0 0 1 2.402-1.192 11.21 11.21 0 0 1 2.949-.398c1.934 0 3.528.793 4.782 2.379 1.254 1.586 1.882 3.743 1.882 6.473 0 5.433-1.078 10.053-3.235 13.861Z"/></g><defs><clipPath id="a"><path fill="#fff" d="M0 0h298.4v74.039H0z"/></clipPath></defs></svg>