<svg xmlns="http://www.w3.org/2000/svg" viewBox="0 0 375 46"><path d="M192 46c1.22-.76 2.45-1.52 3.67-2.28 4.5-2.78 8.8-5.87 12.54-9.6 3.48-3.48 6.74-7.2 9.89-10.99 3.58-4.3 6.96-8.77 10.36-13.22 1.81-2.37 3.49-4.86 5.22-7.29.61-.87 1.21-1.75 1.81-2.62h35.26c-.24 1.39-.48 2.78-.72 4.18-.87 5.15-2.86 9.91-5.6 14.29-2.19 3.5-4.71 6.81-7.2 10.11-2.62 3.48-5.46 6.78-8.03 10.29-1.65 2.26-2.98 4.74-4.46 7.13h-52.75ZM53.25 46h-29.5c-1.31-2.99-2.65-5.98-3.92-8.99-1.56-3.7-3.55-7.08-6.49-9.89C9.56 23.5 5.12 22.17 0 22.75V0h42.75c.13.31.26.61.38.92 1.6 3.92 3.52 7.74 4.74 11.77 2.04 6.73 2.98 13.71 3.84 20.69.52 4.21 1.03 8.42 1.54 12.63ZM94.5 46c-5.81-7.86-8.7-16.86-10.01-26.4-.82-6.01-1.33-12.07-1.96-18.1-.05-.49-.02-1-.03-1.49h27.25c.37 2.08.64 4.17 1.13 6.22 1.31 5.58 3.02 11.05 5.52 16.23 2.35 4.87 5.25 9.41 8.98 13.37 2.99 3.17 6.19 6.12 9.92 8.44.79.49 1.48 1.16 2.21 1.75h-43ZM330 0c-2.66 4.46-5.19 8.99-8.01 13.35-3.92 6.07-7.54 12.32-10.65 18.84-1.89 3.97-3.3 8.16-3.82 12.58-.05.41-.02.83-.02 1.24h-29.75c1.65-3.48 3.3-6.97 4.96-10.45 2.56-5.36 5.09-10.72 7.7-16.05 3.07-6.26 5.32-12.8 7.09-19.51H330ZM211.5 0c-1.85 1.46-3.66 2.98-5.55 4.38-4.83 3.55-9.85 6.79-15.38 9.16-5.34 2.29-10.86 3.97-16.7 4.23-6.17.27-11.97-1.06-17.26-4.34-3.5-2.17-6.51-4.86-8.82-8.3-1.13-1.7-2.2-3.42-3.29-5.13h67ZM342.25 46c.36-4.97 1.2-9.84 3.52-14.29 2.5-4.78 5.04-9.54 7.79-14.18 2.24-3.78 4.83-7.36 7.21-11.05 1.37-2.13 2.65-4.31 3.98-6.47H375v8.75c-3.33 4.36-5.95 9.1-7.6 14.35-1.47 4.7-2.66 9.45-2.65 14.42 0 2.83.16 5.65.24 8.48h-22.75Z"/></svg>